o 1
v -100.00000000 200.00000000 80.00000000
v 255.00000000 200.00000000 80.00000000
v -100.00000000 -140.00000000 80.00000000
v 255.00000000 200.00000000 80.00000000
v 255.00000000 -140.00000000 80.00000000
v -100.00000000 -140.00000000 80.00000000
vt 0.00000000 0.00000000
vt 1.00000000 0.00000000
vt 0.00000000 1.00000000
vt 1.00000000 0.00000000
vt 1.00000000 1.00000000
vt 0.00000000 1.00000000
vn 0.00000000 0.00000000 -1.00000000
vn 0.00000000 0.00000000 -1.00000000
vn 0.00000000 0.00000000 -1.00000000
vn 0.00000000 0.00000000 -1.00000000
vn 0.00000000 0.00000000 -1.00000000
vn 0.00000000 0.00000000 -1.00000000
usemtl (null)
f 1/1/1 2/2/2 3/3/3
f 4/4/4 5/5/5 6/6/6
