o 1
v 0.00000000 -2.00000000 0.00000000
v 2.00000000 -2.00000000 0.00000000
v 0.00000000 -3.00000000 0.00000000
v 2.00000000 -2.00000000 0.00000000
v 2.00000000 -3.00000000 0.00000000
v 0.00000000 -3.00000000 0.00000000
v 0.00000000 -3.00000000 0.00000000
v 2.00000000 -3.00000000 0.00000000
v 0.00000000 -4.00000000 0.00000000
v 2.00000000 -3.00000000 0.00000000
v 2.00000000 -4.00000000 0.00000000
v 0.00000000 -4.00000000 0.00000000
v 0.00000000 -3.00000000 0.00000000
v 0.00000000 -3.00000000 2.00000000
v 0.00000000 -2.00000000 0.00000000
v 0.00000000 -3.00000000 2.00000000
v 0.00000000 -2.00000000 2.00000000
v 0.00000000 -2.00000000 0.00000000
v 0.00000000 -4.00000000 0.00000000
v 0.00000000 -4.00000000 2.00000000
v 0.00000000 -3.00000000 0.00000000
v 0.00000000 -4.00000000 2.00000000
v 0.00000000 -3.00000000 2.00000000
v 0.00000000 -3.00000000 0.00000000
v 2.00000000 -2.00000000 0.00000000
v 2.00000000 -2.00000000 2.00000000
v 2.00000000 -3.00000000 0.00000000
v 2.00000000 -2.00000000 2.00000000
v 2.00000000 -3.00000000 2.00000000
v 2.00000000 -3.00000000 0.00000000
v 2.00000000 -3.00000000 0.00000000
v 2.00000000 -3.00000000 2.00000000
v 2.00000000 -4.00000000 0.00000000
v 2.00000000 -3.00000000 2.00000000
v 2.00000000 -4.00000000 2.00000000
v 2.00000000 -4.00000000 0.00000000
v 0.00000000 -2.00000000 0.00000000
v 0.00000000 -2.00000000 2.00000000
v 1.00000000 -2.00000000 0.00000000
v 0.00000000 -2.00000000 2.00000000
v 1.00000000 -2.00000000 2.00000000
v 1.00000000 -2.00000000 0.00000000
v 1.00000000 -2.00000000 0.00000000
v 1.00000000 -2.00000000 2.00000000
v 2.00000000 -2.00000000 0.00000000
v 1.00000000 -2.00000000 2.00000000
v 2.00000000 -2.00000000 2.00000000
v 2.00000000 -2.00000000 0.00000000
v 1.00000000 -4.00000000 0.00000000
v 1.00000000 -4.00000000 2.00000000
v 0.00000000 -4.00000000 0.00000000
v 1.00000000 -4.00000000 2.00000000
v 0.00000000 -4.00000000 2.00000000
v 0.00000000 -4.00000000 0.00000000
v 2.00000000 -4.00000000 0.00000000
v 2.00000000 -4.00000000 2.00000000
v 1.00000000 -4.00000000 0.00000000
v 2.00000000 -4.00000000 2.00000000
v 1.00000000 -4.00000000 2.00000000
v 1.00000000 -4.00000000 0.00000000
vt 0.50000000 0.79998779
vt 0.69999695 0.79998779
vt 0.50000000 0.89999390
vt 0.69999695 0.79998779
vt 0.69999695 0.89999390
vt 0.50000000 0.89999390
vt 0.50000000 0.89999390
vt 0.69999695 0.89999390
vt 0.50000000 1.00000000
vt 0.69999695 0.89999390
vt 0.69999695 1.00000000
vt 0.50000000 1.00000000
vt 0.38461304 0.69230652
vt 0.53845215 0.69230652
vt 0.38461304 0.61537170
vt 0.53845215 0.69230652
vt 0.53845215 0.61537170
vt 0.38461304 0.61537170
vt 0.38461304 0.76922607
vt 0.53845215 0.76922607
vt 0.38461304 0.69230652
vt 0.53845215 0.76922607
vt 0.53845215 0.69230652
vt 0.38461304 0.69230652
vt 0.53845215 0.61537170
vt 0.69230652 0.61537170
vt 0.53845215 0.69230652
vt 0.69230652 0.61537170
vt 0.69230652 0.69230652
vt 0.53845215 0.69230652
vt 0.53845215 0.69230652
vt 0.69230652 0.69230652
vt 0.53845215 0.76922607
vt 0.69230652 0.69230652
vt 0.69230652 0.76922607
vt 0.53845215 0.76922607
vt 0.38461304 0.61537170
vt 0.46153259 0.61537170
vt 0.38461304 0.76922607
vt 0.46153259 0.61537170
vt 0.46153259 0.76922607
vt 0.38461304 0.76922607
vt 0.46153259 0.61537170
vt 0.53845215 0.61537170
vt 0.46153259 0.76922607
vt 0.53845215 0.61537170
vt 0.53845215 0.76922607
vt 0.46153259 0.76922607
vt 0.38461304 0.76922607
vt 0.46153259 0.76922607
vt 0.38461304 0.92306519
vt 0.46153259 0.76922607
vt 0.46153259 0.92306519
vt 0.38461304 0.92306519
vt 0.46153259 0.76922607
vt 0.53845215 0.76922607
vt 0.46153259 0.92306519
vt 0.53845215 0.76922607
vt 0.53845215 0.92306519
vt 0.46153259 0.92306519
vn 0.00000000 0.00000000 -1.00000000
vn 0.00000000 0.00000000 -1.00000000
vn 0.00000000 0.00000000 -1.00000000
vn 0.00000000 0.00000000 -1.00000000
vn 0.00000000 0.00000000 -1.00000000
vn 0.00000000 0.00000000 -1.00000000
vn 0.00000000 0.00000000 -1.00000000
vn 0.00000000 0.00000000 -1.00000000
vn 0.00000000 0.00000000 -1.00000000
vn 0.00000000 0.00000000 -1.00000000
vn 0.00000000 0.00000000 -1.00000000
vn 0.00000000 0.00000000 -1.00000000
vn -1.00000000 0.00000000 0.00000000
vn -1.00000000 0.00000000 0.00000000
vn -1.00000000 0.00000000 0.00000000
vn -1.00000000 0.00000000 0.00000000
vn -1.00000000 0.00000000 0.00000000
vn -1.00000000 0.00000000 0.00000000
vn -1.00000000 0.00000000 0.00000000
vn -1.00000000 0.00000000 0.00000000
vn -1.00000000 0.00000000 0.00000000
vn -1.00000000 0.00000000 0.00000000
vn -1.00000000 0.00000000 0.00000000
vn -1.00000000 0.00000000 0.00000000
vn 1.00000000 0.00000000 0.00000000
vn 1.00000000 0.00000000 0.00000000
vn 1.00000000 0.00000000 0.00000000
vn 1.00000000 0.00000000 0.00000000
vn 1.00000000 0.00000000 0.00000000
vn 1.00000000 0.00000000 0.00000000
vn 1.00000000 0.00000000 0.00000000
vn 1.00000000 0.00000000 0.00000000
vn 1.00000000 0.00000000 0.00000000
vn 1.00000000 0.00000000 0.00000000
vn 1.00000000 0.00000000 0.00000000
vn 1.00000000 0.00000000 0.00000000
vn 0.00000000 1.00000000 0.00000000
vn 0.00000000 1.00000000 0.00000000
vn 0.00000000 1.00000000 0.00000000
vn 0.00000000 1.00000000 0.00000000
vn 0.00000000 1.00000000 0.00000000
vn 0.00000000 1.00000000 0.00000000
vn 0.00000000 1.00000000 0.00000000
vn 0.00000000 1.00000000 0.00000000
vn 0.00000000 1.00000000 0.00000000
vn 0.00000000 1.00000000 0.00000000
vn 0.00000000 1.00000000 0.00000000
vn 0.00000000 1.00000000 0.00000000
vn 0.00000000 -1.00000000 0.00000000
vn 0.00000000 -1.00000000 0.00000000
vn 0.00000000 -1.00000000 0.00000000
vn 0.00000000 -1.00000000 0.00000000
vn 0.00000000 -1.00000000 0.00000000
vn 0.00000000 -1.00000000 0.00000000
vn 0.00000000 -1.00000000 0.00000000
vn 0.00000000 -1.00000000 0.00000000
vn 0.00000000 -1.00000000 0.00000000
vn 0.00000000 -1.00000000 0.00000000
vn 0.00000000 -1.00000000 0.00000000
vn 0.00000000 -1.00000000 0.00000000
usemtl (null)
f 1/1/1 2/2/2 3/3/3
f 4/4/4 5/5/5 6/6/6
f 7/7/7 8/8/8 9/9/9
f 10/10/10 11/11/11 12/12/12
f 13/13/13 14/14/14 15/15/15
f 16/16/16 17/17/17 18/18/18
f 19/19/19 20/20/20 21/21/21
f 22/22/22 23/23/23 24/24/24
f 25/25/25 26/26/26 27/27/27
f 28/28/28 29/29/29 30/30/30
f 31/31/31 32/32/32 33/33/33
f 34/34/34 35/35/35 36/36/36
f 37/37/37 38/38/38 39/39/39
f 40/40/40 41/41/41 42/42/42
f 43/43/43 44/44/44 45/45/45
f 46/46/46 47/47/47 48/48/48
f 49/49/49 50/50/50 51/51/51
f 52/52/52 53/53/53 54/54/54
f 55/55/55 56/56/56 57/57/57
f 58/58/58 59/59/59 60/60/60
