o 1
v 0.00285339 3.83712769 -0.50000000
v 2.28285217 0.32284546 -0.50000000
v 1.73999023 0.41427612 -0.50000000
v 0.00285339 3.83712769 -0.50000000
v 0.31713867 4.15713501 -0.50000000
v 2.28285217 0.32284546 -0.50000000
v 2.28285217 0.32284546 -0.50000000
v 1.73999023 0.41427612 0.50000000
v 1.73999023 0.41427612 -0.50000000
v 2.28285217 0.32284546 -0.50000000
v 2.28285217 0.32284546 0.50000000
v 1.73999023 0.41427612 0.50000000
v 1.73999023 0.41427612 0.50000000
v 0.00285339 3.83712769 -0.50000000
v 1.73999023 0.41427612 -0.50000000
v 1.73999023 0.41427612 0.50000000
v 0.00285339 3.83712769 0.50000000
v 0.00285339 3.83712769 -0.50000000
v 0.00285339 3.83712769 0.50000000
v 2.28285217 0.32284546 0.50000000
v 0.31713867 4.15713501 0.50000000
v 0.00285339 3.83712769 0.50000000
v 1.73999023 0.41427612 0.50000000
v 2.28285217 0.32284546 0.50000000
v 0.31713867 4.15713501 -0.50000000
v 0.00285339 3.83712769 0.50000000
v 0.31713867 4.15713501 0.50000000
v 0.31713867 4.15713501 -0.50000000
v 0.00285339 3.83712769 -0.50000000
v 0.00285339 3.83712769 0.50000000
v 2.28285217 0.32284546 0.50000000
v 0.31713867 4.15713501 -0.50000000
v 0.31713867 4.15713501 0.50000000
v 2.28285217 0.32284546 0.50000000
v 2.28285217 0.32284546 -0.50000000
v 0.31713867 4.15713501 -0.50000000
v 1.73999023 0.40856934 -0.50000000
v 1.45999146 -1.87142944 -0.27223206
v 1.23713684 -1.59713745 -0.27223206
v 1.73999023 0.40856934 -0.50000000
v 2.28285217 0.31713867 -0.50000000
v 1.45999146 -1.87142944 -0.27223206
v 1.45999146 -1.87142944 -0.27223206
v 1.23713684 -1.59713745 0.31777954
v 1.23713684 -1.59713745 -0.27223206
v 1.45999146 -1.87142944 -0.27223206
v 1.45999146 -1.87142944 0.31777954
v 1.23713684 -1.59713745 0.31777954
v 1.23713684 -1.59713745 0.31777954
v 1.73999023 0.40856934 -0.50000000
v 1.23713684 -1.59713745 -0.27223206
v 1.23713684 -1.59713745 0.31777954
v 1.73999023 0.40856934 0.50000000
v 1.73999023 0.40856934 -0.50000000
v 1.73999023 0.40856934 0.50000000
v 1.45999146 -1.87142944 0.31777954
v 2.28285217 0.31713867 0.50000000
v 1.73999023 0.40856934 0.50000000
v 1.23713684 -1.59713745 0.31777954
v 1.45999146 -1.87142944 0.31777954
v 2.28285217 0.31713867 -0.50000000
v 1.73999023 0.40856934 0.50000000
v 2.28285217 0.31713867 0.50000000
v 2.28285217 0.31713867 -0.50000000
v 1.73999023 0.40856934 -0.50000000
v 1.73999023 0.40856934 0.50000000
v 1.45999146 -1.87142944 0.31777954
v 2.28285217 0.31713867 -0.50000000
v 2.28285217 0.31713867 0.50000000
v 1.45999146 -1.87142944 0.31777954
v 1.45999146 -1.87142944 -0.27223206
v 2.28285217 0.31713867 -0.50000000
vt 1.00000000 1.00000000
vt 0.00000000 1.00000000
vt 0.00000000 0.00000000
vt 0.00000000 0.00000000
vt 1.00000000 0.00000000
vt 1.00000000 1.00000000
vt 1.00000000 1.00000000
vt 0.00000000 1.00000000
vt 0.00000000 0.00000000
vt 0.00000000 0.00000000
vt 1.00000000 0.00000000
vt 1.00000000 1.00000000
vt 1.00000000 1.00000000
vt 0.00000000 1.00000000
vt 0.00000000 0.00000000
vt 0.00000000 0.00000000
vt 1.00000000 0.00000000
vt 1.00000000 1.00000000
vt 1.00000000 1.00000000
vt 0.00000000 1.00000000
vt 0.00000000 0.00000000
vt 0.00000000 0.00000000
vt 1.00000000 0.00000000
vt 1.00000000 1.00000000
vt 1.00000000 1.00000000
vt 0.00000000 1.00000000
vt 0.00000000 0.00000000
vt 0.00000000 0.00000000
vt 1.00000000 0.00000000
vt 1.00000000 1.00000000
vt 1.00000000 1.00000000
vt 0.00000000 1.00000000
vt 0.00000000 0.00000000
vt 0.00000000 0.00000000
vt 1.00000000 0.00000000
vt 1.00000000 1.00000000
vt 1.00000000 1.00000000
vt 0.00000000 1.00000000
vt 0.00000000 0.00000000
vt 0.00000000 0.00000000
vt 1.00000000 0.00000000
vt 1.00000000 1.00000000
vt 1.00000000 1.00000000
vt 0.00000000 1.00000000
vt 0.00000000 0.00000000
vt 0.00000000 0.00000000
vt 1.00000000 0.00000000
vt 1.00000000 1.00000000
vt 1.00000000 1.00000000
vt 0.00000000 1.00000000
vt 0.00000000 0.00000000
vt 0.00000000 0.00000000
vt 1.00000000 0.00000000
vt 1.00000000 1.00000000
vt 1.00000000 1.00000000
vt 0.00000000 1.00000000
vt 0.00000000 0.00000000
vt 0.00000000 0.00000000
vt 1.00000000 0.00000000
vt 1.00000000 1.00000000
vt 1.00000000 1.00000000
vt 0.00000000 1.00000000
vt 0.00000000 0.00000000
vt 0.00000000 0.00000000
vt 1.00000000 0.00000000
vt 1.00000000 1.00000000
vt 1.00000000 1.00000000
vt 0.00000000 1.00000000
vt 0.00000000 0.00000000
vt 0.00000000 0.00000000
vt 1.00000000 0.00000000
vt 1.00000000 1.00000000
vn 0.00000000 0.00000000 -1.00000000
vn 0.00000000 0.00000000 -1.00000000
vn 0.00000000 0.00000000 -1.00000000
vn 0.00000000 0.00000000 -1.00000000
vn 0.00000000 0.00000000 -1.00000000
vn 0.00000000 0.00000000 -1.00000000
vn -0.16598511 -0.98599243 0.00000000
vn -0.16598511 -0.98599243 0.00000000
vn -0.16598511 -0.98599243 0.00000000
vn -0.16598511 -0.98599243 0.00000000
vn -0.16598511 -0.98599243 0.00000000
vn -0.16598511 -0.98599243 0.00000000
vn -0.89199829 -0.45298767 0.00000000
vn -0.89199829 -0.45298767 0.00000000
vn -0.89199829 -0.45298767 0.00000000
vn -0.89199829 -0.45298767 0.00000000
vn -0.89199829 -0.45298767 0.00000000
vn -0.89199829 -0.45298767 0.00000000
vn 0.00000000 0.00000000 1.00000000
vn 0.00000000 0.00000000 1.00000000
vn 0.00000000 0.00000000 1.00000000
vn 0.00000000 0.00000000 1.00000000
vn 0.00000000 0.00000000 1.00000000
vn 0.00000000 0.00000000 1.00000000
vn -0.71299744 0.70098877 0.00000000
vn -0.71299744 0.70098877 0.00000000
vn -0.71299744 0.70098877 0.00000000
vn -0.71299744 0.70098877 0.00000000
vn -0.71299744 0.70098877 0.00000000
vn -0.71299744 0.70098877 0.00000000
vn 0.88999939 0.45599365 0.00000000
vn 0.88999939 0.45599365 0.00000000
vn 0.88999939 0.45599365 0.00000000
vn 0.88999939 0.45599365 0.00000000
vn 0.88999939 0.45599365 0.00000000
vn 0.88999939 0.45599365 0.00000000
vn -0.10598755 -0.08599854 -0.99099731
vn -0.10598755 -0.08599854 -0.99099731
vn -0.10598755 -0.08599854 -0.99099731
vn -0.01599121 -0.09698486 -0.99499512
vn -0.01599121 -0.09698486 -0.99499512
vn -0.01599121 -0.09698486 -0.99499512
vn -0.77598572 -0.63099670 0.00000000
vn -0.77598572 -0.63099670 0.00000000
vn -0.77598572 -0.63099670 0.00000000
vn -0.77598572 -0.63099670 0.00000000
vn -0.77598572 -0.63099670 0.00000000
vn -0.77598572 -0.63099670 0.00000000
vn -0.96998596 0.24299622 0.00000000
vn -0.96998596 0.24299622 0.00000000
vn -0.96998596 0.24299622 0.00000000
vn -0.96998596 0.24299622 0.00000000
vn -0.96998596 0.24299622 0.00000000
vn -0.96998596 0.24299622 0.00000000
vn -0.01298523 -0.07798767 0.99699402
vn -0.01298523 -0.07798767 0.99699402
vn -0.01298523 -0.07798767 0.99699402
vn -0.08499146 -0.06898499 0.99398804
vn -0.08499146 -0.06898499 0.99398804
vn -0.08499146 -0.06898499 0.99398804
vn 0.16598511 0.98599243 0.00000000
vn 0.16598511 0.98599243 0.00000000
vn 0.16598511 0.98599243 0.00000000
vn 0.16598511 0.98599243 0.00000000
vn 0.16598511 0.98599243 0.00000000
vn 0.16598511 0.98599243 0.00000000
vn 0.93598938 -0.35198975 0.00000000
vn 0.93598938 -0.35198975 0.00000000
vn 0.93598938 -0.35198975 0.00000000
vn 0.93598938 -0.35198975 0.00000000
vn 0.93598938 -0.35198975 0.00000000
vn 0.93598938 -0.35198975 0.00000000
usemtl (null)
f 1/1/1 2/2/2 3/3/3
f 4/4/4 5/5/5 6/6/6
f 7/7/7 8/8/8 9/9/9
f 10/10/10 11/11/11 12/12/12
f 13/13/13 14/14/14 15/15/15
f 16/16/16 17/17/17 18/18/18
f 19/19/19 20/20/20 21/21/21
f 22/22/22 23/23/23 24/24/24
f 25/25/25 26/26/26 27/27/27
f 28/28/28 29/29/29 30/30/30
f 31/31/31 32/32/32 33/33/33
f 34/34/34 35/35/35 36/36/36
f 37/37/37 38/38/38 39/39/39
f 40/40/40 41/41/41 42/42/42
f 43/43/43 44/44/44 45/45/45
f 46/46/46 47/47/47 48/48/48
f 49/49/49 50/50/50 51/51/51
f 52/52/52 53/53/53 54/54/54
f 55/55/55 56/56/56 57/57/57
f 58/58/58 59/59/59 60/60/60
f 61/61/61 62/62/62 63/63/63
f 64/64/64 65/65/65 66/66/66
f 67/67/67 68/68/68 69/69/69
f 70/70/70 71/71/71 72/72/72
