o 1
v -0.50688171 9.24067688 -0.36557007
v 0.81819153 0.00846863 -0.36557007
v -0.87310791 -0.01536560 -0.36557007
v -0.50688171 9.24067688 -0.36557007
v 0.33134460 9.24067688 -0.36557007
v 0.81819153 0.00846863 -0.36557007
v 0.81819153 0.00846863 -0.36557007
v -0.87310791 -0.01536560 0.41113281
v -0.87310791 -0.01536560 -0.36557007
v 0.81819153 0.00846863 -0.36557007
v 0.81819153 0.00846863 0.41113281
v -0.87310791 -0.01536560 0.41113281
v -0.87310791 -0.01536560 0.41113281
v -0.50688171 9.24067688 -0.36557007
v -0.87310791 -0.01536560 -0.36557007
v -0.87310791 -0.01536560 0.41113281
v -0.50688171 9.24067688 0.41113281
v -0.50688171 9.24067688 -0.36557007
v -0.50688171 9.24067688 0.41113281
v 0.81819153 0.00846863 0.41113281
v 0.33134460 9.24067688 0.41113281
v -0.50688171 9.24067688 0.41113281
v -0.87310791 -0.01536560 0.41113281
v 0.81819153 0.00846863 0.41113281
v 0.33134460 9.24067688 -0.36557007
v -0.50688171 9.24067688 0.41113281
v 0.33134460 9.24067688 0.41113281
v 0.33134460 9.24067688 -0.36557007
v -0.50688171 9.24067688 -0.36557007
v -0.50688171 9.24067688 0.41113281
v 0.81819153 0.00846863 0.41113281
v 0.33134460 9.24067688 -0.36557007
v 0.33134460 9.24067688 0.41113281
v 0.81819153 0.00846863 0.41113281
v 0.81819153 0.00846863 -0.36557007
v 0.33134460 9.24067688 -0.36557007
v 0.44552612 -1.67092896 -0.51582336
v -0.93205261 0.02514648 -0.51582336
v 0.80220032 0.04864502 -0.51582336
v 0.44552612 -1.67092896 -0.51582336
v -0.41401672 -1.68037415 -0.51582336
v -0.93205261 0.02514648 -0.51582336
v -0.93205261 0.02514648 -0.51582336
v 0.80220032 0.04864502 0.58009338
v 0.80220032 0.04864502 -0.51582336
v -0.93205261 0.02514648 -0.51582336
v -0.93205261 0.02514648 0.58009338
v 0.80220032 0.04864502 0.58009338
v 0.80220032 0.04864502 0.58009338
v 0.44552612 -1.67092896 -0.51582336
v 0.80220032 0.04864502 -0.51582336
v 0.80220032 0.04864502 0.58009338
v 0.44552612 -1.67092896 0.58009338
v 0.44552612 -1.67092896 -0.51582336
v 0.44552612 -1.67092896 0.58009338
v -0.93205261 0.02514648 0.58009338
v -0.41401672 -1.68037415 0.58009338
v 0.44552612 -1.67092896 0.58009338
v 0.80220032 0.04864502 0.58009338
v -0.93205261 0.02514648 0.58009338
v -0.41401672 -1.68037415 -0.51582336
v 0.44552612 -1.67092896 0.58009338
v -0.41401672 -1.68037415 0.58009338
v -0.41401672 -1.68037415 -0.51582336
v 0.44552612 -1.67092896 -0.51582336
v 0.44552612 -1.67092896 0.58009338
v -0.93205261 0.02514648 0.58009338
v -0.41401672 -1.68037415 -0.51582336
v -0.41401672 -1.68037415 0.58009338
v -0.93205261 0.02514648 0.58009338
v -0.93205261 0.02514648 -0.51582336
v -0.41401672 -1.68037415 -0.51582336
vt 0.09999084 0.00000000
vt 0.39999390 0.00000000
vt 0.09999084 0.29998779
vt 0.09999084 0.00000000
vt 0.39999390 0.00000000
vt 0.09999084 0.29998779
vt 0.09999084 0.00000000
vt 0.39999390 0.00000000
vt 0.09999084 0.29998779
vt 0.09999084 0.00000000
vt 0.39999390 0.00000000
vt 0.09999084 0.29998779
vt 0.09999084 0.00000000
vt 0.39999390 0.00000000
vt 0.09999084 0.29998779
vt 0.09999084 0.00000000
vt 0.39999390 0.00000000
vt 0.09999084 0.29998779
vt 0.09999084 0.00000000
vt 0.39999390 0.00000000
vt 0.09999084 0.29998779
vt 0.09999084 0.00000000
vt 0.39999390 0.00000000
vt 0.09999084 0.29998779
vt 0.09999084 0.00000000
vt 0.39999390 0.00000000
vt 0.09999084 0.29998779
vt 0.09999084 0.00000000
vt 0.39999390 0.00000000
vt 0.09999084 0.29998779
vt 0.09999084 0.00000000
vt 0.39999390 0.00000000
vt 0.09999084 0.29998779
vt 0.09999084 0.00000000
vt 0.39999390 0.00000000
vt 0.09999084 0.29998779
vt 0.09999084 0.00000000
vt 0.39999390 0.00000000
vt 0.09999084 0.29998779
vt 0.09999084 0.00000000
vt 0.39999390 0.00000000
vt 0.09999084 0.29998779
vt 0.09999084 0.00000000
vt 0.39999390 0.00000000
vt 0.09999084 0.29998779
vt 0.09999084 0.00000000
vt 0.39999390 0.00000000
vt 0.09999084 0.29998779
vt 0.09999084 0.00000000
vt 0.39999390 0.00000000
vt 0.09999084 0.29998779
vt 0.09999084 0.00000000
vt 0.39999390 0.00000000
vt 0.09999084 0.29998779
vt 0.09999084 0.00000000
vt 0.39999390 0.00000000
vt 0.09999084 0.29998779
vt 0.09999084 0.00000000
vt 0.39999390 0.00000000
vt 0.09999084 0.29998779
vt 0.09999084 0.00000000
vt 0.39999390 0.00000000
vt 0.09999084 0.29998779
vt 0.09999084 0.00000000
vt 0.39999390 0.00000000
vt 0.09999084 0.29998779
vt 0.09999084 0.00000000
vt 0.39999390 0.00000000
vt 0.09999084 0.29998779
vt 0.09999084 0.00000000
vt 0.39999390 0.00000000
vt 0.09999084 0.29998779
vn 0.00000000 0.00000000 -1.00000000
vn 0.00000000 0.00000000 -1.00000000
vn 0.00000000 0.00000000 -1.00000000
vn 0.00000000 0.00000000 -1.00000000
vn 0.00000000 0.00000000 -1.00000000
vn 0.00000000 0.00000000 -1.00000000
vn 0.01399231 -1.00000000 0.00000000
vn 0.01399231 -1.00000000 0.00000000
vn 0.01399231 -1.00000000 0.00000000
vn 0.01399231 -1.00000000 0.00000000
vn 0.01399231 -1.00000000 0.00000000
vn 0.01399231 -1.00000000 0.00000000
vn -0.99899292 0.03999329 0.00000000
vn -0.99899292 0.03999329 0.00000000
vn -0.99899292 0.03999329 0.00000000
vn -0.99899292 0.03999329 0.00000000
vn -0.99899292 0.03999329 0.00000000
vn -0.99899292 0.03999329 0.00000000
vn 0.00000000 0.00000000 1.00000000
vn 0.00000000 0.00000000 1.00000000
vn 0.00000000 0.00000000 1.00000000
vn 0.00000000 0.00000000 1.00000000
vn 0.00000000 0.00000000 1.00000000
vn 0.00000000 0.00000000 1.00000000
vn 0.00000000 1.00000000 0.00000000
vn 0.00000000 1.00000000 0.00000000
vn 0.00000000 1.00000000 0.00000000
vn 0.00000000 1.00000000 0.00000000
vn 0.00000000 1.00000000 0.00000000
vn 0.00000000 1.00000000 0.00000000
vn 0.99899292 0.05299377 0.00000000
vn 0.99899292 0.05299377 0.00000000
vn 0.99899292 0.05299377 0.00000000
vn 0.99899292 0.05299377 0.00000000
vn 0.99899292 0.05299377 0.00000000
vn 0.99899292 0.05299377 0.00000000
vn 0.00000000 0.00000000 -1.00000000
vn 0.00000000 0.00000000 -1.00000000
vn 0.00000000 0.00000000 -1.00000000
vn 0.00000000 0.00000000 -1.00000000
vn 0.00000000 0.00000000 -1.00000000
vn 0.00000000 0.00000000 -1.00000000
vn -0.01399231 1.00000000 0.00000000
vn -0.01399231 1.00000000 0.00000000
vn -0.01399231 1.00000000 0.00000000
vn -0.01399231 1.00000000 0.00000000
vn -0.01399231 1.00000000 0.00000000
vn -0.01399231 1.00000000 0.00000000
vn 0.97898865 -0.20298767 0.00000000
vn 0.97898865 -0.20298767 0.00000000
vn 0.97898865 -0.20298767 0.00000000
vn 0.97898865 -0.20298767 0.00000000
vn 0.97898865 -0.20298767 0.00000000
vn 0.97898865 -0.20298767 0.00000000
vn 0.00000000 0.00000000 1.00000000
vn 0.00000000 0.00000000 1.00000000
vn 0.00000000 0.00000000 1.00000000
vn 0.00000000 0.00000000 1.00000000
vn 0.00000000 0.00000000 1.00000000
vn 0.00000000 0.00000000 1.00000000
vn 0.01098633 -1.00000000 0.00000000
vn 0.01098633 -1.00000000 0.00000000
vn 0.01098633 -1.00000000 0.00000000
vn 0.01098633 -1.00000000 0.00000000
vn 0.01098633 -1.00000000 0.00000000
vn 0.01098633 -1.00000000 0.00000000
vn -0.95698547 -0.29098511 0.00000000
vn -0.95698547 -0.29098511 0.00000000
vn -0.95698547 -0.29098511 0.00000000
vn -0.95698547 -0.29098511 0.00000000
vn -0.95698547 -0.29098511 0.00000000
vn -0.95698547 -0.29098511 0.00000000
usemtl (null)
f 1/1/1 2/2/2 3/3/3
f 4/4/4 5/5/5 6/6/6
f 7/7/7 8/8/8 9/9/9
f 10/10/10 11/11/11 12/12/12
f 13/13/13 14/14/14 15/15/15
f 16/16/16 17/17/17 18/18/18
f 19/19/19 20/20/20 21/21/21
f 22/22/22 23/23/23 24/24/24
f 25/25/25 26/26/26 27/27/27
f 28/28/28 29/29/29 30/30/30
f 31/31/31 32/32/32 33/33/33
f 34/34/34 35/35/35 36/36/36
f 37/37/37 38/38/38 39/39/39
f 40/40/40 41/41/41 42/42/42
f 43/43/43 44/44/44 45/45/45
f 46/46/46 47/47/47 48/48/48
f 49/49/49 50/50/50 51/51/51
f 52/52/52 53/53/53 54/54/54
f 55/55/55 56/56/56 57/57/57
f 58/58/58 59/59/59 60/60/60
f 61/61/61 62/62/62 63/63/63
f 64/64/64 65/65/65 66/66/66
f 67/67/67 68/68/68 69/69/69
f 70/70/70 71/71/71 72/72/72
