o 1
v -0.50000000 3.00000000 0.29998779
v 0.50000000 3.00000000 0.29998779
v -0.50000000 2.00000000 0.29998779
v 0.50000000 3.00000000 0.29998779
v 0.50000000 2.00000000 0.29998779
v -0.50000000 2.00000000 0.29998779
v 2.50000000 3.00000000 0.29998779
v 3.50000000 3.00000000 0.29998779
v 2.50000000 2.00000000 0.29998779
v 3.50000000 3.00000000 0.29998779
v 3.50000000 2.00000000 0.29998779
v 2.50000000 2.00000000 0.29998779
v -0.50000000 2.00000000 0.29998779
v -0.50000000 2.00000000 2.00000000
v -0.50000000 3.00000000 0.29998779
v -0.50000000 2.00000000 2.00000000
v -0.50000000 3.00000000 2.00000000
v -0.50000000 3.00000000 0.29998779
v 2.50000000 2.00000000 0.29998779
v 2.50000000 2.00000000 2.00000000
v 2.50000000 3.00000000 0.29998779
v 2.50000000 2.00000000 2.00000000
v 2.50000000 3.00000000 2.00000000
v 2.50000000 3.00000000 0.29998779
v 0.50000000 3.00000000 0.29998779
v 0.50000000 3.00000000 2.00000000
v 0.50000000 2.00000000 0.29998779
v 0.50000000 3.00000000 2.00000000
v 0.50000000 2.00000000 2.00000000
v 0.50000000 2.00000000 0.29998779
v 3.50000000 3.00000000 0.29998779
v 3.50000000 3.00000000 2.00000000
v 3.50000000 2.00000000 0.29998779
v 3.50000000 3.00000000 2.00000000
v 3.50000000 2.00000000 2.00000000
v 3.50000000 2.00000000 0.29998779
v -0.50000000 3.00000000 0.29998779
v -0.50000000 3.00000000 2.00000000
v 0.50000000 3.00000000 0.29998779
v -0.50000000 3.00000000 2.00000000
v 0.50000000 3.00000000 2.00000000
v 0.50000000 3.00000000 0.29998779
v 2.50000000 3.00000000 0.29998779
v 2.50000000 3.00000000 2.00000000
v 3.50000000 3.00000000 0.29998779
v 2.50000000 3.00000000 2.00000000
v 3.50000000 3.00000000 2.00000000
v 3.50000000 3.00000000 0.29998779
v 0.50000000 2.00000000 0.29998779
v 0.50000000 2.00000000 2.00000000
v -0.50000000 2.00000000 0.29998779
v 0.50000000 2.00000000 2.00000000
v -0.50000000 2.00000000 2.00000000
v -0.50000000 2.00000000 0.29998779
v 3.50000000 2.00000000 0.29998779
v 3.50000000 2.00000000 2.00000000
v 2.50000000 2.00000000 0.29998779
v 3.50000000 2.00000000 2.00000000
v 2.50000000 2.00000000 2.00000000
v 2.50000000 2.00000000 0.29998779
vt 0.22538757 0.84361267
vt 0.25674438 0.84361267
vt 0.22538757 0.85334778
vt 0.25674438 0.84361267
vt 0.25674438 0.85334778
vt 0.22538757 0.85334778
vt 0.31944275 0.84361267
vt 0.35078430 0.84361267
vt 0.31944275 0.85334778
vt 0.35078430 0.84361267
vt 0.35078430 0.85334778
vt 0.31944275 0.85334778
vt 0.18881226 0.84165955
vt 0.23323059 0.84165955
vt 0.18881226 0.83308411
vt 0.23323059 0.84165955
vt 0.23323059 0.83308411
vt 0.18881226 0.83308411
vt 0.26718140 0.84165955
vt 0.31159973 0.84165955
vt 0.26718140 0.83308411
vt 0.31159973 0.84165955
vt 0.31159973 0.83308411
vt 0.26718140 0.83308411
vt 0.21493530 0.83308411
vt 0.25935364 0.83308411
vt 0.21493530 0.84165955
vt 0.25935364 0.83308411
vt 0.25935364 0.84165955
vt 0.21493530 0.84165955
vt 0.29331970 0.83308411
vt 0.33772278 0.83308411
vt 0.29331970 0.84165955
vt 0.33772278 0.83308411
vt 0.33772278 0.84165955
vt 0.29331970 0.84165955
vt 0.18881226 0.83308411
vt 0.21493530 0.83308411
vt 0.18881226 0.84765625
vt 0.21493530 0.83308411
vt 0.21493530 0.84765625
vt 0.18881226 0.84765625
vt 0.26718140 0.83308411
vt 0.29331970 0.83308411
vt 0.26718140 0.84765625
vt 0.29331970 0.83308411
vt 0.29331970 0.84765625
vt 0.26718140 0.84765625
vt 0.18881226 0.84165955
vt 0.21493530 0.84165955
vt 0.18881226 0.85623169
vt 0.21493530 0.84165955
vt 0.21493530 0.85623169
vt 0.18881226 0.85623169
vt 0.26718140 0.84165955
vt 0.29331970 0.84165955
vt 0.26718140 0.85623169
vt 0.29331970 0.84165955
vt 0.29331970 0.85623169
vt 0.26718140 0.85623169
vn 0.00000000 0.00000000 -1.00000000
vn 0.00000000 0.00000000 -1.00000000
vn 0.00000000 0.00000000 -1.00000000
vn 0.00000000 0.00000000 -1.00000000
vn 0.00000000 0.00000000 -1.00000000
vn 0.00000000 0.00000000 -1.00000000
vn 0.00000000 0.00000000 -1.00000000
vn 0.00000000 0.00000000 -1.00000000
vn 0.00000000 0.00000000 -1.00000000
vn 0.00000000 0.00000000 -1.00000000
vn 0.00000000 0.00000000 -1.00000000
vn 0.00000000 0.00000000 -1.00000000
vn -1.00000000 0.00000000 0.00000000
vn -1.00000000 0.00000000 0.00000000
vn -1.00000000 0.00000000 0.00000000
vn -1.00000000 0.00000000 0.00000000
vn -1.00000000 0.00000000 0.00000000
vn -1.00000000 0.00000000 0.00000000
vn -1.00000000 0.00000000 0.00000000
vn -1.00000000 0.00000000 0.00000000
vn -1.00000000 0.00000000 0.00000000
vn -1.00000000 0.00000000 0.00000000
vn -1.00000000 0.00000000 0.00000000
vn -1.00000000 0.00000000 0.00000000
vn 1.00000000 0.00000000 0.00000000
vn 1.00000000 0.00000000 0.00000000
vn 1.00000000 0.00000000 0.00000000
vn 1.00000000 0.00000000 0.00000000
vn 1.00000000 0.00000000 0.00000000
vn 1.00000000 0.00000000 0.00000000
vn 1.00000000 0.00000000 0.00000000
vn 1.00000000 0.00000000 0.00000000
vn 1.00000000 0.00000000 0.00000000
vn 1.00000000 0.00000000 0.00000000
vn 1.00000000 0.00000000 0.00000000
vn 1.00000000 0.00000000 0.00000000
vn 0.00000000 1.00000000 0.00000000
vn 0.00000000 1.00000000 0.00000000
vn 0.00000000 1.00000000 0.00000000
vn 0.00000000 1.00000000 0.00000000
vn 0.00000000 1.00000000 0.00000000
vn 0.00000000 1.00000000 0.00000000
vn 0.00000000 1.00000000 0.00000000
vn 0.00000000 1.00000000 0.00000000
vn 0.00000000 1.00000000 0.00000000
vn 0.00000000 1.00000000 0.00000000
vn 0.00000000 1.00000000 0.00000000
vn 0.00000000 1.00000000 0.00000000
vn 0.00000000 -1.00000000 0.00000000
vn 0.00000000 -1.00000000 0.00000000
vn 0.00000000 -1.00000000 0.00000000
vn 0.00000000 -1.00000000 0.00000000
vn 0.00000000 -1.00000000 0.00000000
vn 0.00000000 -1.00000000 0.00000000
vn 0.00000000 -1.00000000 0.00000000
vn 0.00000000 -1.00000000 0.00000000
vn 0.00000000 -1.00000000 0.00000000
vn 0.00000000 -1.00000000 0.00000000
vn 0.00000000 -1.00000000 0.00000000
vn 0.00000000 -1.00000000 0.00000000
usemtl (null)
f 1/1/1 2/2/2 3/3/3
f 4/4/4 5/5/5 6/6/6
f 7/7/7 8/8/8 9/9/9
f 10/10/10 11/11/11 12/12/12
f 13/13/13 14/14/14 15/15/15
f 16/16/16 17/17/17 18/18/18
f 19/19/19 20/20/20 21/21/21
f 22/22/22 23/23/23 24/24/24
f 25/25/25 26/26/26 27/27/27
f 28/28/28 29/29/29 30/30/30
f 31/31/31 32/32/32 33/33/33
f 34/34/34 35/35/35 36/36/36
f 37/37/37 38/38/38 39/39/39
f 40/40/40 41/41/41 42/42/42
f 43/43/43 44/44/44 45/45/45
f 46/46/46 47/47/47 48/48/48
f 49/49/49 50/50/50 51/51/51
f 52/52/52 53/53/53 54/54/54
f 55/55/55 56/56/56 57/57/57
f 58/58/58 59/59/59 60/60/60
