o 1
v -0.49969482 4.02041626 -0.50000000
v 0.22599792 0.04899597 -0.27223206
v -0.13398743 0.04899597 -0.27223206
v -0.49969482 4.02041626 -0.50000000
v 0.54598999 4.02041626 -0.50000000
v 0.22599792 0.04899597 -0.27223206
v 0.22599792 0.04899597 -0.27223206
v -0.13398743 0.04899597 0.18113708
v -0.13398743 0.04899597 -0.27223206
v 0.22599792 0.04899597 -0.27223206
v 0.22599792 0.04899597 0.18113708
v -0.13398743 0.04899597 0.18113708
v -0.13398743 0.04899597 0.18113708
v -0.49969482 4.02041626 -0.50000000
v -0.13398743 0.04899597 -0.27223206
v -0.13398743 0.04899597 0.18113708
v -0.49969482 4.02041626 0.50000000
v -0.49969482 4.02041626 -0.50000000
v -0.49969482 4.02041626 0.50000000
v 0.22599792 0.04899597 0.18113708
v 0.54598999 4.02041626 0.50000000
v -0.49969482 4.02041626 0.50000000
v -0.13398743 0.04899597 0.18113708
v 0.22599792 0.04899597 0.18113708
v 0.54598999 4.02041626 -0.50000000
v -0.49969482 4.02041626 0.50000000
v 0.54598999 4.02041626 0.50000000
v 0.54598999 4.02041626 -0.50000000
v -0.49969482 4.02041626 -0.50000000
v -0.49969482 4.02041626 0.50000000
v 0.22599792 0.04899597 0.18113708
v 0.54598999 4.02041626 -0.50000000
v 0.54598999 4.02041626 0.50000000
v 0.22599792 0.04899597 0.18113708
v 0.22599792 0.04899597 -0.27223206
v 0.54598999 4.02041626 -0.50000000
v -0.22541809 0.04299927 -0.27223206
v 0.72885132 -4.06556702 -0.50000000
v -0.54542542 -4.01985168 -0.50000000
v -0.22541809 0.04299927 -0.27223206
v 0.22599792 0.04299927 -0.27223206
v 0.72885132 -4.06556702 -0.50000000
v 0.72885132 -4.06556702 -0.50000000
v -0.54542542 -4.01985168 0.50000000
v -0.54542542 -4.01985168 -0.50000000
v 0.72885132 -4.06556702 -0.50000000
v 0.72885132 -4.06556702 0.50000000
v -0.54542542 -4.01985168 0.50000000
v -0.54542542 -4.01985168 0.50000000
v -0.22541809 0.04299927 -0.27223206
v -0.54542542 -4.01985168 -0.50000000
v -0.54542542 -4.01985168 0.50000000
v -0.22541809 0.04299927 0.18113708
v -0.22541809 0.04299927 -0.27223206
v -0.22541809 0.04299927 0.18113708
v 0.72885132 -4.06556702 0.50000000
v 0.22599792 0.04299927 0.18113708
v -0.22541809 0.04299927 0.18113708
v -0.54542542 -4.01985168 0.50000000
v 0.72885132 -4.06556702 0.50000000
v 0.22599792 0.04299927 -0.27223206
v -0.22541809 0.04299927 0.18113708
v 0.22599792 0.04299927 0.18113708
v 0.22599792 0.04299927 -0.27223206
v -0.22541809 0.04299927 -0.27223206
v -0.22541809 0.04299927 0.18113708
v 0.72885132 -4.06556702 0.50000000
v 0.22599792 0.04299927 -0.27223206
v 0.22599792 0.04299927 0.18113708
v 0.72885132 -4.06556702 0.50000000
v 0.72885132 -4.06556702 -0.50000000
v 0.22599792 0.04299927 -0.27223206
vt 1.00000000 1.00000000
vt 0.00000000 1.00000000
vt 0.00000000 0.00000000
vt 0.00000000 0.00000000
vt 1.00000000 0.00000000
vt 1.00000000 1.00000000
vt 1.00000000 1.00000000
vt 0.00000000 1.00000000
vt 0.00000000 0.00000000
vt 0.00000000 0.00000000
vt 1.00000000 0.00000000
vt 1.00000000 1.00000000
vt 1.00000000 1.00000000
vt 0.00000000 1.00000000
vt 0.00000000 0.00000000
vt 0.00000000 0.00000000
vt 1.00000000 0.00000000
vt 1.00000000 1.00000000
vt 1.00000000 1.00000000
vt 0.00000000 1.00000000
vt 0.00000000 0.00000000
vt 0.00000000 0.00000000
vt 1.00000000 0.00000000
vt 1.00000000 1.00000000
vt 1.00000000 1.00000000
vt 0.00000000 1.00000000
vt 0.00000000 0.00000000
vt 0.00000000 0.00000000
vt 1.00000000 0.00000000
vt 1.00000000 1.00000000
vt 1.00000000 1.00000000
vt 0.00000000 1.00000000
vt 0.00000000 0.00000000
vt 0.00000000 0.00000000
vt 1.00000000 0.00000000
vt 1.00000000 1.00000000
vt 1.00000000 1.00000000
vt 0.00000000 1.00000000
vt 0.00000000 0.00000000
vt 0.00000000 0.00000000
vt 1.00000000 0.00000000
vt 1.00000000 1.00000000
vt 1.00000000 1.00000000
vt 0.00000000 1.00000000
vt 0.00000000 0.00000000
vt 0.00000000 0.00000000
vt 1.00000000 0.00000000
vt 1.00000000 1.00000000
vt 1.00000000 1.00000000
vt 0.00000000 1.00000000
vt 0.00000000 0.00000000
vt 0.00000000 0.00000000
vt 1.00000000 0.00000000
vt 1.00000000 1.00000000
vt 1.00000000 1.00000000
vt 0.00000000 1.00000000
vt 0.00000000 0.00000000
vt 0.00000000 0.00000000
vt 1.00000000 0.00000000
vt 1.00000000 1.00000000
vt 1.00000000 1.00000000
vt 0.00000000 1.00000000
vt 0.00000000 0.00000000
vt 0.00000000 0.00000000
vt 1.00000000 0.00000000
vt 1.00000000 1.00000000
vt 1.00000000 1.00000000
vt 0.00000000 1.00000000
vt 0.00000000 0.00000000
vt 0.00000000 0.00000000
vt 1.00000000 0.00000000
vt 1.00000000 1.00000000
vn 0.00000000 -0.05699158 -0.99798584
vn 0.00000000 -0.05699158 -0.99798584
vn 0.00000000 -0.05699158 -0.99798584
vn 0.00000000 -0.05699158 -0.99798584
vn 0.00000000 -0.05699158 -0.99798584
vn 0.00000000 -0.05699158 -0.99798584
vn 0.00000000 -1.00000000 0.00000000
vn 0.00000000 -1.00000000 0.00000000
vn 0.00000000 -1.00000000 0.00000000
vn 0.00000000 -1.00000000 0.00000000
vn 0.00000000 -1.00000000 0.00000000
vn 0.00000000 -1.00000000 0.00000000
vn -0.99598694 -0.09199524 0.00000000
vn -0.99598694 -0.09199524 0.00000000
vn -0.99598694 -0.09199524 0.00000000
vn -0.99598694 -0.09199524 0.00000000
vn -0.99598694 -0.09199524 0.00000000
vn -0.99598694 -0.09199524 0.00000000
vn 0.00000000 -0.07998657 0.99699402
vn 0.00000000 -0.07998657 0.99699402
vn 0.00000000 -0.07998657 0.99699402
vn 0.00000000 -0.07998657 0.99699402
vn 0.00000000 -0.07998657 0.99699402
vn 0.00000000 -0.07998657 0.99699402
vn 0.00000000 1.00000000 0.00000000
vn 0.00000000 1.00000000 0.00000000
vn 0.00000000 1.00000000 0.00000000
vn 0.00000000 1.00000000 0.00000000
vn 0.00000000 1.00000000 0.00000000
vn 0.00000000 1.00000000 0.00000000
vn 0.99699402 -0.07998657 0.00000000
vn 0.99699402 -0.07998657 0.00000000
vn 0.99699402 -0.07998657 0.00000000
vn 0.99699402 -0.07998657 0.00000000
vn 0.99699402 -0.07998657 0.00000000
vn 0.99699402 -0.07998657 0.00000000
vn 0.00199890 0.05599976 -0.99798584
vn 0.00199890 0.05599976 -0.99798584
vn 0.00199890 0.05599976 -0.99798584
vn 0.00000000 0.05499268 -0.99798584
vn 0.00000000 0.05499268 -0.99798584
vn 0.00000000 0.05499268 -0.99798584
vn -0.03599548 -0.99899292 0.00000000
vn -0.03599548 -0.99899292 0.00000000
vn -0.03599548 -0.99899292 0.00000000
vn -0.03599548 -0.99899292 0.00000000
vn -0.03599548 -0.99899292 0.00000000
vn -0.03599548 -0.99899292 0.00000000
vn -0.99699402 0.07899475 0.00000000
vn -0.99699402 0.07899475 0.00000000
vn -0.99699402 0.07899475 0.00000000
vn -0.99699402 0.07899475 0.00000000
vn -0.99699402 0.07899475 0.00000000
vn -0.99699402 0.07899475 0.00000000
vn 0.00000000 0.07699585 0.99699402
vn 0.00000000 0.07699585 0.99699402
vn 0.00000000 0.07699585 0.99699402
vn 0.00299072 0.07798767 0.99699402
vn 0.00299072 0.07798767 0.99699402
vn 0.00299072 0.07798767 0.99699402
vn 0.00000000 1.00000000 0.00000000
vn 0.00000000 1.00000000 0.00000000
vn 0.00000000 1.00000000 0.00000000
vn 0.00000000 1.00000000 0.00000000
vn 0.00000000 1.00000000 0.00000000
vn 0.00000000 1.00000000 0.00000000
vn 0.99299622 0.12098694 0.00000000
vn 0.99299622 0.12098694 0.00000000
vn 0.99299622 0.12098694 0.00000000
vn 0.99299622 0.12098694 0.00000000
vn 0.99299622 0.12098694 0.00000000
vn 0.99299622 0.12098694 0.00000000
usemtl (null)
f 1/1/1 2/2/2 3/3/3
f 4/4/4 5/5/5 6/6/6
f 7/7/7 8/8/8 9/9/9
f 10/10/10 11/11/11 12/12/12
f 13/13/13 14/14/14 15/15/15
f 16/16/16 17/17/17 18/18/18
f 19/19/19 20/20/20 21/21/21
f 22/22/22 23/23/23 24/24/24
f 25/25/25 26/26/26 27/27/27
f 28/28/28 29/29/29 30/30/30
f 31/31/31 32/32/32 33/33/33
f 34/34/34 35/35/35 36/36/36
f 37/37/37 38/38/38 39/39/39
f 40/40/40 41/41/41 42/42/42
f 43/43/43 44/44/44 45/45/45
f 46/46/46 47/47/47 48/48/48
f 49/49/49 50/50/50 51/51/51
f 52/52/52 53/53/53 54/54/54
f 55/55/55 56/56/56 57/57/57
f 58/58/58 59/59/59 60/60/60
f 61/61/61 62/62/62 63/63/63
f 64/64/64 65/65/65 66/66/66
f 67/67/67 68/68/68 69/69/69
f 70/70/70 71/71/71 72/72/72
