o 1
v 0.00000000 0.00000000 0.00000000
v 3.08627319 3.45339966 0.00000000
v -0.96797180 5.03388977 0.00000000
v 3.08627319 3.45339966 0.00000000
v 0.00000000 0.00000000 0.00000000
v -0.96797180 5.03388977 0.00000000
v 0.00000000 0.00000000 0.00000000
v 4.16339111 2.02909851 0.00000000
v 1.00840759 5.02593994 0.00000000
v 4.16339111 2.02909851 0.00000000
v 0.00000000 0.00000000 0.00000000
v 1.00840759 5.02593994 0.00000000
v 0.00000000 0.00000000 0.00000000
v 4.62216187 0.29428101 0.00000000
v 2.84309387 4.26541138 0.00000000
v 4.62216187 0.29428101 0.00000000
v 0.00000000 0.00000000 0.00000000
v 2.84309387 4.26541138 0.00000000
v 0.00000000 0.00000000 0.00000000
v 4.38163757 -1.50074768 0.00000000
v 4.26147461 2.84899902 0.00000000
v 4.38163757 -1.50074768 0.00000000
v 0.00000000 0.00000000 0.00000000
v 4.26147461 2.84899902 0.00000000
v 0.00000000 0.00000000 0.00000000
v 3.51884460 -3.01142883 0.00000000
v 5.01194763 1.07580566 0.00000000
v 3.51884460 -3.01142883 0.00000000
v 0.00000000 0.00000000 0.00000000
v 5.01194763 1.07580566 0.00000000
v 0.00000000 0.00000000 0.00000000
v 2.16101074 -4.09646606 0.00000000
v 5.05557251 -0.84739685 0.00000000
v 2.16101074 -4.09646606 0.00000000
v 0.00000000 0.00000000 0.00000000
v 5.05557251 -0.84739685 0.00000000
v 0.00000000 0.00000000 0.00000000
v 0.48437500 -4.60612488 0.00000000
v 4.37887573 -2.66503906 0.00000000
v 0.48437500 -4.60612488 0.00000000
v 0.00000000 0.00000000 0.00000000
v 4.37887573 -2.66503906 0.00000000
v 0.00000000 0.00000000 0.00000000
v -1.26239014 -4.45616150 0.00000000
v 3.07456970 -4.10169983 0.00000000
v -1.26239014 -4.45616150 0.00000000
v 0.00000000 0.00000000 0.00000000
v 3.07456970 -4.10169983 0.00000000
v 0.00000000 0.00000000 0.00000000
v -3.10791016 -3.43392944 0.00000000
v 0.93632507 -5.03987122 0.00000000
v -3.10791016 -3.43392944 0.00000000
v 0.00000000 0.00000000 0.00000000
v 0.93632507 -5.03987122 0.00000000
v 0.00000000 0.00000000 0.00000000
v -4.15521240 -2.04579163 0.00000000
v -0.98822021 -5.02995300 0.00000000
v -4.15521240 -2.04579163 0.00000000
v 0.00000000 0.00000000 0.00000000
v -0.98822021 -5.02995300 0.00000000
v 0.00000000 0.00000000 0.00000000
v -4.61747742 -0.36039734 0.00000000
v -2.78175354 -4.30566406 0.00000000
v -4.61747742 -0.36039734 0.00000000
v 0.00000000 0.00000000 0.00000000
v -2.78175354 -4.30566406 0.00000000
v 0.00000000 0.00000000 0.00000000
v -4.41577148 1.39710999 0.00000000
v -4.19316101 -2.94860840 0.00000000
v -4.41577148 1.39710999 0.00000000
v 0.00000000 0.00000000 0.00000000
v -4.19316101 -2.94860840 0.00000000
v 0.00000000 0.00000000 0.00000000
v -4.41577148 1.39710999 0.00000000
v -4.19316101 -2.94860840 0.00000000
v -4.41577148 1.39710999 0.00000000
v 0.00000000 0.00000000 0.00000000
v -4.19316101 -2.94860840 0.00000000
v 0.00000000 0.00000000 0.00000000
v -3.46896362 3.06875610 0.00000000
v -5.02891541 -0.99343872 0.00000000
v -3.46896362 3.06875610 0.00000000
v 0.00000000 0.00000000 0.00000000
v -5.02891541 -0.99343872 0.00000000
v 0.00000000 0.00000000 0.00000000
v -3.46896362 3.06875610 0.00000000
v -5.02891541 -0.99343872 0.00000000
v -3.46896362 3.06875610 0.00000000
v 0.00000000 0.00000000 0.00000000
v -5.02891541 -0.99343872 0.00000000
v 0.00000000 0.00000000 0.00000000
v -2.08053589 4.13792419 0.00000000
v -5.03805542 0.94606018 0.00000000
v -2.08053589 4.13792419 0.00000000
v 0.00000000 0.00000000 0.00000000
v -5.03805542 0.94606018 0.00000000
v 0.00000000 0.00000000 0.00000000
v -2.08053589 4.13792419 0.00000000
v -5.03805542 0.94606018 0.00000000
v -2.08053589 4.13792419 0.00000000
v 0.00000000 0.00000000 0.00000000
v -5.03805542 0.94606018 0.00000000
v 0.00000000 0.00000000 0.00000000
v -0.40390015 4.61387634 0.00000000
v -4.33169556 2.74105835 0.00000000
v -0.40390015 4.61387634 0.00000000
v 0.00000000 0.00000000 0.00000000
v -4.33169556 2.74105835 0.00000000
v 0.00000000 0.00000000 0.00000000
v -0.40390015 4.61387634 0.00000000
v -4.33169556 2.74105835 0.00000000
v -0.40390015 4.61387634 0.00000000
v 0.00000000 0.00000000 0.00000000
v -4.33169556 2.74105835 0.00000000
v 0.00000000 0.00000000 0.00000000
v 1.53054810 4.37132263 0.00000000
v -2.81993103 4.28076172 0.00000000
v 1.53054810 4.37132263 0.00000000
v 0.00000000 0.00000000 0.00000000
v -2.81993103 4.28076172 0.00000000
v 0.00000000 0.00000000 0.00000000
v 1.53054810 4.37132263 0.00000000
v -2.81993103 4.28076172 0.00000000
v 1.53054810 4.37132263 0.00000000
v 0.00000000 0.00000000 0.00000000
v -2.81993103 4.28076172 0.00000000
vt 1.00000000 1.00000000
vt 0.00000000 1.00000000
vt 0.00000000 0.00000000
vt 0.00000000 0.00000000
vt 1.00000000 0.00000000
vt 1.00000000 1.00000000
vt 1.00000000 1.00000000
vt 0.00000000 1.00000000
vt 0.00000000 0.00000000
vt 0.00000000 0.00000000
vt 1.00000000 0.00000000
vt 1.00000000 1.00000000
vt 1.00000000 1.00000000
vt 0.00000000 1.00000000
vt 0.00000000 0.00000000
vt 0.00000000 0.00000000
vt 1.00000000 0.00000000
vt 1.00000000 1.00000000
vt 1.00000000 1.00000000
vt 0.00000000 1.00000000
vt 0.00000000 0.00000000
vt 0.00000000 0.00000000
vt 1.00000000 0.00000000
vt 1.00000000 1.00000000
vt 1.00000000 1.00000000
vt 0.00000000 1.00000000
vt 0.00000000 0.00000000
vt 0.00000000 0.00000000
vt 1.00000000 0.00000000
vt 1.00000000 1.00000000
vt 1.00000000 1.00000000
vt 0.00000000 1.00000000
vt 0.00000000 0.00000000
vt 0.00000000 0.00000000
vt 1.00000000 0.00000000
vt 1.00000000 1.00000000
vt 1.00000000 1.00000000
vt 0.00000000 1.00000000
vt 0.00000000 0.00000000
vt 0.00000000 0.00000000
vt 1.00000000 0.00000000
vt 1.00000000 1.00000000
vt 1.00000000 1.00000000
vt 0.00000000 1.00000000
vt 0.00000000 0.00000000
vt 0.00000000 0.00000000
vt 1.00000000 0.00000000
vt 1.00000000 1.00000000
vt 1.00000000 1.00000000
vt 0.00000000 1.00000000
vt 0.00000000 0.00000000
vt 0.00000000 0.00000000
vt 1.00000000 0.00000000
vt 1.00000000 1.00000000
vt 1.00000000 1.00000000
vt 0.00000000 1.00000000
vt 0.00000000 0.00000000
vt 0.00000000 0.00000000
vt 1.00000000 0.00000000
vt 1.00000000 1.00000000
vt 1.00000000 1.00000000
vt 0.00000000 1.00000000
vt 0.00000000 0.00000000
vt 0.00000000 0.00000000
vt 1.00000000 0.00000000
vt 1.00000000 1.00000000
vt 1.00000000 1.00000000
vt 0.00000000 1.00000000
vt 0.00000000 0.00000000
vt 0.00000000 0.00000000
vt 1.00000000 0.00000000
vt 1.00000000 1.00000000
vt 1.00000000 1.00000000
vt 0.00000000 1.00000000
vt 0.00000000 0.00000000
vt 0.00000000 0.00000000
vt 1.00000000 0.00000000
vt 1.00000000 1.00000000
vt 1.00000000 1.00000000
vt 0.00000000 1.00000000
vt 0.00000000 0.00000000
vt 0.00000000 0.00000000
vt 1.00000000 0.00000000
vt 1.00000000 1.00000000
vt 1.00000000 1.00000000
vt 0.00000000 1.00000000
vt 0.00000000 0.00000000
vt 0.00000000 0.00000000
vt 1.00000000 0.00000000
vt 1.00000000 1.00000000
vt 1.00000000 1.00000000
vt 0.00000000 1.00000000
vt 0.00000000 0.00000000
vt 0.00000000 0.00000000
vt 1.00000000 0.00000000
vt 1.00000000 1.00000000
vt 1.00000000 1.00000000
vt 0.00000000 1.00000000
vt 0.00000000 0.00000000
vt 0.00000000 0.00000000
vt 1.00000000 0.00000000
vt 1.00000000 1.00000000
vt 1.00000000 1.00000000
vt 0.00000000 1.00000000
vt 0.00000000 0.00000000
vt 0.00000000 0.00000000
vt 1.00000000 0.00000000
vt 1.00000000 1.00000000
vt 1.00000000 1.00000000
vt 0.00000000 1.00000000
vt 0.00000000 0.00000000
vt 0.00000000 0.00000000
vt 1.00000000 0.00000000
vt 1.00000000 1.00000000
vt 1.00000000 1.00000000
vt 0.00000000 1.00000000
vt 0.00000000 0.00000000
vt 0.00000000 0.00000000
vt 1.00000000 0.00000000
vt 1.00000000 1.00000000
vt 1.00000000 1.00000000
vt 0.00000000 1.00000000
vt 0.00000000 0.00000000
vt 0.00000000 0.00000000
vt 1.00000000 0.00000000
vt 1.00000000 1.00000000
vn 0.00000000 0.00000000 1.00000000
vn 0.00000000 0.00000000 1.00000000
vn 0.00000000 0.00000000 1.00000000
vn 0.00000000 0.00000000 -1.00000000
vn 0.00000000 0.00000000 -1.00000000
vn 0.00000000 0.00000000 -1.00000000
vn 0.00000000 0.00000000 1.00000000
vn 0.00000000 0.00000000 1.00000000
vn 0.00000000 0.00000000 1.00000000
vn 0.00000000 0.00000000 -1.00000000
vn 0.00000000 0.00000000 -1.00000000
vn 0.00000000 0.00000000 -1.00000000
vn 0.00000000 0.00000000 1.00000000
vn 0.00000000 0.00000000 1.00000000
vn 0.00000000 0.00000000 1.00000000
vn 0.00000000 0.00000000 -1.00000000
vn 0.00000000 0.00000000 -1.00000000
vn 0.00000000 0.00000000 -1.00000000
vn 0.00000000 0.00000000 1.00000000
vn 0.00000000 0.00000000 1.00000000
vn 0.00000000 0.00000000 1.00000000
vn 0.00000000 0.00000000 -1.00000000
vn 0.00000000 0.00000000 -1.00000000
vn 0.00000000 0.00000000 -1.00000000
vn 0.00000000 0.00000000 1.00000000
vn 0.00000000 0.00000000 1.00000000
vn 0.00000000 0.00000000 1.00000000
vn 0.00000000 0.00000000 -1.00000000
vn 0.00000000 0.00000000 -1.00000000
vn 0.00000000 0.00000000 -1.00000000
vn 0.00000000 0.00000000 1.00000000
vn 0.00000000 0.00000000 1.00000000
vn 0.00000000 0.00000000 1.00000000
vn 0.00000000 0.00000000 -1.00000000
vn 0.00000000 0.00000000 -1.00000000
vn 0.00000000 0.00000000 -1.00000000
vn 0.00000000 0.00000000 1.00000000
vn 0.00000000 0.00000000 1.00000000
vn 0.00000000 0.00000000 1.00000000
vn 0.00000000 0.00000000 -1.00000000
vn 0.00000000 0.00000000 -1.00000000
vn 0.00000000 0.00000000 -1.00000000
vn 0.00000000 0.00000000 1.00000000
vn 0.00000000 0.00000000 1.00000000
vn 0.00000000 0.00000000 1.00000000
vn 0.00000000 0.00000000 -1.00000000
vn 0.00000000 0.00000000 -1.00000000
vn 0.00000000 0.00000000 -1.00000000
vn 0.00000000 0.00000000 1.00000000
vn 0.00000000 0.00000000 1.00000000
vn 0.00000000 0.00000000 1.00000000
vn 0.00000000 0.00000000 -1.00000000
vn 0.00000000 0.00000000 -1.00000000
vn 0.00000000 0.00000000 -1.00000000
vn 0.00000000 0.00000000 1.00000000
vn 0.00000000 0.00000000 1.00000000
vn 0.00000000 0.00000000 1.00000000
vn 0.00000000 0.00000000 -1.00000000
vn 0.00000000 0.00000000 -1.00000000
vn 0.00000000 0.00000000 -1.00000000
vn 0.00000000 0.00000000 1.00000000
vn 0.00000000 0.00000000 1.00000000
vn 0.00000000 0.00000000 1.00000000
vn 0.00000000 0.00000000 -1.00000000
vn 0.00000000 0.00000000 -1.00000000
vn 0.00000000 0.00000000 -1.00000000
vn 0.00000000 0.00000000 1.00000000
vn 0.00000000 0.00000000 1.00000000
vn 0.00000000 0.00000000 1.00000000
vn 0.00000000 0.00000000 -1.00000000
vn 0.00000000 0.00000000 -1.00000000
vn 0.00000000 0.00000000 -1.00000000
vn 0.00000000 0.00000000 1.00000000
vn 0.00000000 0.00000000 1.00000000
vn 0.00000000 0.00000000 1.00000000
vn 0.00000000 0.00000000 -1.00000000
vn 0.00000000 0.00000000 -1.00000000
vn 0.00000000 0.00000000 -1.00000000
vn 0.00000000 0.00000000 1.00000000
vn 0.00000000 0.00000000 1.00000000
vn 0.00000000 0.00000000 1.00000000
vn 0.00000000 0.00000000 -1.00000000
vn 0.00000000 0.00000000 -1.00000000
vn 0.00000000 0.00000000 -1.00000000
vn 0.00000000 0.00000000 1.00000000
vn 0.00000000 0.00000000 1.00000000
vn 0.00000000 0.00000000 1.00000000
vn 0.00000000 0.00000000 -1.00000000
vn 0.00000000 0.00000000 -1.00000000
vn 0.00000000 0.00000000 -1.00000000
vn 0.00000000 0.00000000 1.00000000
vn 0.00000000 0.00000000 1.00000000
vn 0.00000000 0.00000000 1.00000000
vn 0.00000000 0.00000000 -1.00000000
vn 0.00000000 0.00000000 -1.00000000
vn 0.00000000 0.00000000 -1.00000000
vn 0.00000000 0.00000000 1.00000000
vn 0.00000000 0.00000000 1.00000000
vn 0.00000000 0.00000000 1.00000000
vn 0.00000000 0.00000000 -1.00000000
vn 0.00000000 0.00000000 -1.00000000
vn 0.00000000 0.00000000 -1.00000000
vn 0.00000000 0.00000000 1.00000000
vn 0.00000000 0.00000000 1.00000000
vn 0.00000000 0.00000000 1.00000000
vn 0.00000000 0.00000000 -1.00000000
vn 0.00000000 0.00000000 -1.00000000
vn 0.00000000 0.00000000 -1.00000000
vn 0.00000000 0.00000000 1.00000000
vn 0.00000000 0.00000000 1.00000000
vn 0.00000000 0.00000000 1.00000000
vn 0.00000000 0.00000000 -1.00000000
vn 0.00000000 0.00000000 -1.00000000
vn 0.00000000 0.00000000 -1.00000000
vn 0.00000000 0.00000000 1.00000000
vn 0.00000000 0.00000000 1.00000000
vn 0.00000000 0.00000000 1.00000000
vn 0.00000000 0.00000000 -1.00000000
vn 0.00000000 0.00000000 -1.00000000
vn 0.00000000 0.00000000 -1.00000000
vn 0.00000000 0.00000000 1.00000000
vn 0.00000000 0.00000000 1.00000000
vn 0.00000000 0.00000000 1.00000000
vn 0.00000000 0.00000000 -1.00000000
vn 0.00000000 0.00000000 -1.00000000
vn 0.00000000 0.00000000 -1.00000000
usemtl (null)
f 1/1/1 2/2/2 3/3/3
f 4/4/4 5/5/5 6/6/6
f 7/7/7 8/8/8 9/9/9
f 10/10/10 11/11/11 12/12/12
f 13/13/13 14/14/14 15/15/15
f 16/16/16 17/17/17 18/18/18
f 19/19/19 20/20/20 21/21/21
f 22/22/22 23/23/23 24/24/24
f 25/25/25 26/26/26 27/27/27
f 28/28/28 29/29/29 30/30/30
f 31/31/31 32/32/32 33/33/33
f 34/34/34 35/35/35 36/36/36
f 37/37/37 38/38/38 39/39/39
f 40/40/40 41/41/41 42/42/42
f 43/43/43 44/44/44 45/45/45
f 46/46/46 47/47/47 48/48/48
f 49/49/49 50/50/50 51/51/51
f 52/52/52 53/53/53 54/54/54
f 55/55/55 56/56/56 57/57/57
f 58/58/58 59/59/59 60/60/60
f 61/61/61 62/62/62 63/63/63
f 64/64/64 65/65/65 66/66/66
f 67/67/67 68/68/68 69/69/69
f 70/70/70 71/71/71 72/72/72
f 73/73/73 74/74/74 75/75/75
f 76/76/76 77/77/77 78/78/78
f 79/79/79 80/80/80 81/81/81
f 82/82/82 83/83/83 84/84/84
f 85/85/85 86/86/86 87/87/87
f 88/88/88 89/89/89 90/90/90
f 91/91/91 92/92/92 93/93/93
f 94/94/94 95/95/95 96/96/96
f 97/97/97 98/98/98 99/99/99
f 100/100/100 101/101/101 102/102/102
f 103/103/103 104/104/104 105/105/105
f 106/106/106 107/107/107 108/108/108
f 109/109/109 110/110/110 111/111/111
f 112/112/112 113/113/113 114/114/114
f 115/115/115 116/116/116 117/117/117
f 118/118/118 119/119/119 120/120/120
f 121/121/121 122/122/122 123/123/123
f 124/124/124 125/125/125 126/126/126
