o 1
v -60.00000000 -5.00000000 0.00000000
v 220.00000000 -5.00000000 0.00000000
v -60.00000000 -135.00000000 0.00000000
v 220.00000000 -5.00000000 0.00000000
v 220.00000000 -135.00000000 0.00000000
v -60.00000000 -135.00000000 0.00000000
vt 0.09999084 0.09999084
vt 0.89999390 0.09999084
vt 0.09999084 0.89999390
vt 0.89999390 0.09999084
vt 0.89999390 0.89999390
vt 0.09999084 0.89999390
vn 0.00000000 0.00000000 -1.00000000
vn 0.00000000 0.00000000 -1.00000000
vn 0.00000000 0.00000000 -1.00000000
vn 0.00000000 0.00000000 -1.00000000
vn 0.00000000 0.00000000 -1.00000000
vn 0.00000000 0.00000000 -1.00000000
usemtl (null)
f 1/1/1 2/2/2 3/3/3
f 4/4/4 5/5/5 6/6/6
