o 1
v -60.00000000 10.00000000 0.00000000
v 220.00000000 10.00000000 0.00000000
v -60.00000000 -10.00000000 0.00000000
v 220.00000000 10.00000000 0.00000000
v 220.00000000 -10.00000000 0.00000000
v -60.00000000 -10.00000000 0.00000000
vt 0.00999451 0.02999878
vt 41.98999023 0.02999878
vt 0.00999451 0.98999023
vt 41.98999023 0.02999878
vt 41.98999023 0.98999023
vt 0.00999451 0.98999023
vn 0.00000000 0.00000000 -1.00000000
vn 0.00000000 0.00000000 -1.00000000
vn 0.00000000 0.00000000 -1.00000000
vn 0.00000000 0.00000000 -1.00000000
vn 0.00000000 0.00000000 -1.00000000
vn 0.00000000 0.00000000 -1.00000000
usemtl (null)
f 1/1/1 2/2/2 3/3/3
f 4/4/4 5/5/5 6/6/6
